HIERARCHY
ROOT Hips
{
	OFFSET -0.001795 -0.223333 0.028219
	CHANNELS 6 Xposition Yposition Zposition Zrotation Yrotation Xrotation 
	JOINT LeftUpLeg
	{
		OFFSET 0.069520 -0.091406 -0.006815
		CHANNELS 3 Zrotation Yrotation Xrotation
		JOINT LeftLeg
		{
			OFFSET 0.034277 -0.375199 -0.004496
			CHANNELS 3 Zrotation Yrotation Xrotation
			JOINT LeftFoot
			{
				OFFSET -0.013596 -0.397961 -0.043693
				CHANNELS 3 Zrotation Yrotation Xrotation
				JOINT LeftToe
				{
					OFFSET 0.026358 -0.055791 0.119288
					CHANNELS 3 Zrotation Yrotation Xrotation
					End Site
					{
						OFFSET 0.000000 0.000000 0.000000
					}
				}
			}
		}
	}
	JOINT RightUpLeg
	{
		OFFSET -0.067670 -0.090522 -0.004320
		CHANNELS 3 Zrotation Yrotation Xrotation
		JOINT RightLeg
		{
			OFFSET -0.038290 -0.382569 -0.008850
			CHANNELS 3 Zrotation Yrotation Xrotation
			JOINT RightFoot
			{
				OFFSET 0.015774 -0.398415 -0.042312
				CHANNELS 3 Zrotation Yrotation Xrotation
				JOINT RightToe
				{
					OFFSET -0.025372 -0.048144 0.123348
					CHANNELS 3 Zrotation Yrotation Xrotation
					End Site
					{
						OFFSET 0.000000 0.000000 0.000000
					}
				}
			}
		}
	}
	JOINT Spine
	{
		OFFSET -0.002533 0.108963 -0.026696
		CHANNELS 3 Zrotation Yrotation Xrotation
		JOINT Spine1
		{
			OFFSET 0.005487 0.135180 0.001092
			CHANNELS 3 Zrotation Yrotation Xrotation
			JOINT Spine2
			{
				OFFSET 0.001457 0.052922 0.025425
				CHANNELS 3 Zrotation Yrotation Xrotation
				JOINT Neck
				{
					OFFSET -0.002778 0.213870 -0.042857
					CHANNELS 3 Zrotation Yrotation Xrotation
					JOINT Head
					{
						OFFSET 0.005152 0.064970 0.051349
						CHANNELS 3 Zrotation Yrotation Xrotation
						End Site
						{
							OFFSET 0.000000 0.000000 0.000000
						}
					}
				}
				JOINT LeftShoulder
				{
					OFFSET 0.078845 0.121749 -0.034090
					CHANNELS 3 Zrotation Yrotation Xrotation
					JOINT LeftArm
					{
						OFFSET 0.090977 0.030469 -0.008868
						CHANNELS 3 Zrotation Yrotation Xrotation
						JOINT LeftForeArm
						{
							OFFSET 0.259612 -0.012772 -0.027456
							CHANNELS 3 Zrotation Yrotation Xrotation
							JOINT LeftHand
							{
								OFFSET 0.249234 0.008986 -0.001171
								CHANNELS 3 Zrotation Yrotation Xrotation
								End Site
								{
									OFFSET 0.000000 0.000000 0.000000
								}
							}
						}
					}
				}
				JOINT RightShoulder
				{
					OFFSET -0.081759 0.118833 -0.038615
					CHANNELS 3 Zrotation Yrotation Xrotation
					JOINT RightArm
					{
						OFFSET -0.096012 0.032551 -0.009143
						CHANNELS 3 Zrotation Yrotation Xrotation
						JOINT RightForeArm
						{
							OFFSET -0.253742 -0.013329 -0.021401
							CHANNELS 3 Zrotation Yrotation Xrotation
							JOINT RightHand
							{
								OFFSET -0.255298 0.007772 -0.005559
								CHANNELS 3 Zrotation Yrotation Xrotation
								End Site
								{
									OFFSET 0.000000 0.000000 0.000000
								}
							}
						}
					}
				}
			}
		}
	}
}
MOTION
Frames: 6
Frame Time: 0.050000
0.000000 0.949474 0.000000 -0.691848 -0.047214 0.675445 1.795317 0.167524 2.546728 -0.394214 0.153788 -3.621051 -0.811073 0.967618 5.850748 0.000000 0.000000 0.000000 -1.161666 0.034319 -0.059310 -0.889564 0.054409 -0.838557 3.376519 4.748741 5.998851 0.000000 0.000000 0.000000 5.116346 0.100223 -1.800316 -1.339832 0.632754 0.721214 -3.377856 3.353393 6.134655 8.860448 -3.677297 -17.231154 0.000000 0.000000 0.000000 -24.553590 -11.678494 3.209672 -47.471299 -2.290423 -4.447829 -7.280872 -28.871072 2.759251 0.000000 0.000000 0.000000 22.337081 5.400498 2.319647 52.946394 6.235934 -2.888321 9.654458 31.230037 3.921671 0.000000 0.000000 0.000000 
-0.000237 0.948151 0.001101 -0.852112 -0.563458 1.082287 2.234687 0.153305 2.556675 -1.065948 0.222210 -4.245834 -0.240851 1.762166 5.239682 0.000000 0.000000 0.000000 -1.096868 0.110458 -0.896753 -0.623171 0.079044 0.304215 3.158065 4.580576 5.375583 0.000000 0.000000 0.000000 5.725742 0.151095 -2.395748 -1.846224 0.877217 1.167452 -3.834933 4.233407 6.105576 10.715264 -4.461701 -18.592287 0.000000 0.000000 0.000000 -24.743162 -12.208948 3.261424 -47.867163 -1.626678 -4.653617 -6.074720 -29.049338 2.424971 0.000000 0.000000 0.000000 22.775183 4.778059 2.194267 53.639047 6.515760 -2.859647 8.786245 29.997817 3.578928 0.000000 0.000000 0.000000 
-0.000487 0.947938 0.001968 -0.644279 -0.538027 1.220419 2.068082 0.141684 2.326703 -1.027224 0.207128 -3.760560 -0.124818 1.933418 5.113276 0.000000 0.000000 0.000000 -1.277549 0.115838 -0.914079 -0.865629 0.096657 0.127023 3.320249 5.001520 5.297521 0.000000 0.000000 0.000000 6.095179 0.171027 -2.599390 -1.815387 0.870026 -0.184335 -4.402150 4.261818 7.383235 9.990813 -4.017242 -18.840237 0.000000 0.000000 0.000000 -23.969004 -12.354705 3.407555 -47.999185 -1.534390 -4.838699 -7.218920 -27.499378 2.586441 0.000000 0.000000 0.000000 23.473591 5.557237 2.752628 52.501548 6.369022 -3.041199 9.057619 30.348037 3.703537 0.000000 0.000000 0.000000 
-0.000830 0.947808 0.002824 -0.737001 -0.530283 1.169171 2.395619 0.152945 2.642937 -1.258482 0.230186 -3.987747 0.006438 2.101089 4.899160 0.000000 0.000000 0.000000 -1.190846 0.116593 -0.942742 -0.675210 0.085966 0.334010 3.487903 5.447001 5.202677 0.000000 0.000000 0.000000 6.120255 0.189628 -2.781864 -1.649948 0.785118 0.593643 -4.351562 4.052412 6.807324 10.108834 -4.021516 -19.170060 0.000000 0.000000 0.000000 -24.335468 -12.333695 3.419740 -48.160682 -0.771733 -5.103779 -6.243561 -28.054005 2.401435 0.000000 0.000000 0.000000 23.451768 5.879518 2.862582 52.138235 6.080937 -3.076550 8.821076 29.971347 3.560208 0.000000 0.000000 0.000000 
-0.001274 0.948033 0.003529 -0.745490 -0.822784 0.977862 2.056326 0.187406 2.895965 -0.770516 0.194434 -3.995309 0.317217 2.677160 4.891591 0.000000 0.000000 0.000000 -1.178707 0.087664 -0.623502 -0.775510 0.098467 0.377510 3.685095 6.064338 4.910436 0.000000 0.000000 0.000000 6.309516 0.191549 -2.718292 -1.578185 0.748631 0.963367 -4.379275 3.750433 6.635544 10.243042 -4.237041 -18.700806 0.000000 0.000000 0.000000 -24.364847 -12.564060 3.711683 -48.521132 -0.344684 -5.348890 -6.634237 -27.634146 2.484819 0.000000 0.000000 0.000000 23.234791 6.111306 2.839540 51.633723 6.117236 -2.986809 9.190815 30.022924 3.625517 0.000000 0.000000 0.000000 
-0.001713 0.948083 0.004180 -0.904017 -0.851266 0.816500 2.135716 0.207082 3.191470 -0.610809 0.180358 -3.925139 0.546283 2.910622 4.339639 0.000000 0.000000 0.000000 -1.034876 0.073472 -0.505704 -0.825478 0.106000 0.422332 3.937060 6.598690 4.986908 0.000000 0.000000 0.000000 6.420904 0.174531 -2.491243 -1.480016 0.700966 0.961993 -4.259934 3.463658 6.725076 9.835378 -3.963485 -19.063644 0.000000 0.000000 0.000000 -24.305597 -12.447125 3.763111 -49.076987 -0.144987 -5.544846 -6.285752 -27.801362 2.433893 0.000000 0.000000 0.000000 23.397255 6.717278 3.106960 51.210552 6.076529 -2.978821 9.132885 29.538286 3.515976 0.000000 0.000000 0.000000 
